<svg xmlns="http://www.w3.org/2000/svg" width="30" height="30" fill="none"><g stroke="#C9C9C9" stroke-linecap="round" stroke-linejoin="round" stroke-width="3" clip-path="url(#a)"><path d="M15 18.8a3.7 3.7 0 1 0 0-7.5 3.7 3.7 0 0 0 0 7.4Z"/><path d="M24.3 18.8a2 2 0 0 0 .4 2.2v.1a2.5 2.5 0 1 1-3.5 3.5h0a2 2 0 0 0-2.3-.5 2 2 0 0 0-1.3 2v.1a2.5 2.5 0 0 1-5 0v0a2 2 0 0 0-1.3-2 2 2 0 0 0-2.3.5h-.1a2.5 2.5 0 1 1-3.5-3.5h0a2 2 0 0 0 .4-2.3A2 2 0 0 0 4 17.6h-.3a2.5 2.5 0 0 1 0-5H4a2 2 0 0 0 1.9-1.3A2 2 0 0 0 5.3 9v-.1a2.5 2.5 0 1 1 3.5-3.5h0a2 2 0 0 0 2.3.4h.2A2 2 0 0 0 12.4 4v-.3a2.5 2.5 0 0 1 5 0V4a2 2 0 0 0 1.3 1.9 2 2 0 0 0 2.2-.5h.1a2.5 2.5 0 1 1 3.5 3.5h0a2 2 0 0 0-.5 2.3v.2a2 2 0 0 0 2 1.2h.1a2.5 2.5 0 0 1 0 5h0a2 2 0 0 0-2 1.3Z"/></g><defs><clipPath id="a"><path fill="#fff" d="M0 0h30v30H0z"/></clipPath></defs></svg>